<?xml version="1.0" standalone="no"?>
<!DOCTYPE svg PUBLIC "-//W3C//DTD SVG 1.1//EN" "http://www.w3.org/Graphics/SVG/1.1/DTD/svg11.dtd">
<svg width="100%" height="100%" viewBox="0 0 1280 300" version="1.1" xmlns="http://www.w3.org/2000/svg" xmlns:xlink="http://www.w3.org/1999/xlink" xml:space="preserve" style="fill-rule:evenodd;clip-rule:evenodd;stroke-linecap:round;stroke-linejoin:round;stroke-miterlimit:1.41421;">
    <g transform="matrix(1,0,0,1,-6.82785,15.5835)">
        <path d="M323.264,141.663C323.264,127.764 311.98,116.48 298.081,116.48L148.419,116.48C134.521,116.48 123.237,127.764 123.237,141.663L123.237,192.027C123.237,205.926 134.521,217.209 148.419,217.209L298.081,217.209C311.98,217.209 323.264,205.926 323.264,192.027L323.264,141.663Z" style="fill:rgb(167,167,167);stroke-width:7.5px;stroke:black;"/>
    </g>
    <g id="numbers">
        <g transform="matrix(1.36683,0,0,1.36683,-61.1991,-26.9869)">
            <path d="M158.021,134.051L160.526,136.557L160.526,150L158.134,152.392L155.743,150L155.821,136.689L158.021,134.051Z" style="fill:rgb(255,97,0);"/>
        </g>
        <g transform="matrix(1.36683,0,0,1.36683,-38.921,-26.9869)">
            <path d="M158.021,134.051L160.526,136.557L160.526,150L158.134,152.392L155.743,150L155.821,136.689L158.021,134.051Z" style="fill:rgb(255,97,0);"/>
        </g>
        <g transform="matrix(3.87192e-16,1.36683,-1.36683,3.87192e-16,457.687,-59.1606)">
            <path d="M158.021,134.051L160.526,136.557L160.526,150L158.134,152.392L155.743,150L155.821,136.689L158.021,134.051Z" style="fill:rgb(255,97,0);"/>
        </g>
        <g transform="matrix(1.36683,-0.00283907,0.00283907,1.36683,60.1009,-24.513)">
            <path d="M158.021,134.051L160.526,136.557L160.526,150L158.134,152.392L155.743,150L155.821,136.689L158.021,134.051Z" style="fill:rgb(255,97,0);"/>
        </g>
        <g transform="matrix(-8.26799e-16,-1.36683,1.36683,-8.26799e-16,66.1675,426.346)">
            <path d="M158.021,134.051L160.526,136.557L160.526,150L158.134,152.392L155.743,150L155.821,136.689L158.021,134.051Z" style="fill:rgb(255,97,0);"/>
        </g>
        <g transform="matrix(-1.36683,0.00283907,-0.00283907,-1.36683,464.556,366.415)">
            <path d="M158.021,134.051L160.526,136.557L160.526,150L158.134,152.392L155.743,150L155.821,136.689L158.021,134.051Z" style="fill:rgb(255,97,0);"/>
        </g>
        <g transform="matrix(1.36683,-0.00283907,0.00283907,1.36683,60.1009,0.861799)">
            <path d="M158.021,134.051L160.526,136.557L160.526,150L158.134,152.392L155.743,150L155.821,136.689L158.021,134.051Z" style="fill:rgb(255,97,0);"/>
        </g>
        <g transform="matrix(-1.36683,0.00283907,-0.00283907,-1.36683,464.556,391.79)">
            <path d="M158.021,134.051L160.526,136.557L160.526,150L158.134,152.392L155.743,150L155.821,136.689L158.021,134.051Z" style="fill:rgb(255,97,0);"/>
        </g>
        <g transform="matrix(3.87192e-16,1.36683,-1.36683,3.87192e-16,416.676,-60.4357)">
            <path d="M158.021,134.051L160.526,136.557L160.526,150L158.134,152.392L155.743,150L155.821,136.689L158.021,134.051Z" style="fill:rgb(255,97,0);"/>
        </g>
        <g transform="matrix(1.36683,-0.00283907,0.00283907,1.36683,19.09,-25.7882)">
            <path d="M158.021,134.051L160.526,136.557L160.526,150L158.134,152.392L155.743,150L155.821,136.689L158.021,134.051Z" style="fill:rgb(255,97,0);"/>
        </g>
        <g transform="matrix(-8.26799e-16,-1.36683,1.36683,-8.26799e-16,25.1566,425.07)">
            <path d="M158.021,134.051L160.526,136.557L160.526,150L158.134,152.392L155.743,150L155.821,136.689L158.021,134.051Z" style="fill:rgb(255,97,0);"/>
        </g>
        <g transform="matrix(-1.36683,0.00283907,-0.00283907,-1.36683,423.545,390.514)">
            <path d="M158.021,134.051L160.526,136.557L160.526,150L158.134,152.392L155.743,150L155.821,136.689L158.021,134.051Z" style="fill:rgb(255,97,0);"/>
        </g>
        <g transform="matrix(1.36683,0,0,1.36683,-38.921,0.562216)">
            <path d="M158.021,134.051L160.526,136.557L160.526,150L158.134,152.392L155.743,150L155.821,136.689L158.021,134.051Z" style="fill:rgb(255,97,0);"/>
        </g>
        <g transform="matrix(0.773545,0,0,0.773545,27.6381,37.0317)">
            <path d="M214.24,166.845L220.297,172.902L214.24,178.959L208.182,172.902L214.24,166.845Z" style="fill:rgb(255,97,0);"/>
        </g>
        <g transform="matrix(0.773545,0,0,0.773545,27.6381,60.5684)">
            <path d="M214.24,166.845L220.297,172.902L214.24,178.959L208.182,172.902L214.24,166.845Z" style="fill:rgb(255,97,0);"/>
        </g>
        <g transform="matrix(3.87192e-16,1.36683,-1.18858,3.36696e-16,336.757,-33.8261)">
            <path d="M158.021,134.051L160.526,136.557L160.526,150L158.134,152.392L155.743,150L155.821,136.689L158.021,134.051Z" style="fill:rgb(255,97,0);"/>
        </g>
        <g transform="matrix(3.87192e-16,1.36683,-1.33051,3.76903e-16,411.697,-34.0965)">
            <path d="M158.021,134.051L160.526,136.557L160.526,150L158.134,152.392L155.743,150L155.821,136.689L158.021,134.051Z" style="fill:rgb(255,97,0);"/>
        </g>
    </g>
    <g transform="matrix(1,0,0,2.636,0,-380.849)">
        <rect x="0" y="232.793" width="471.675" height="42.102" style="fill:rgb(38,38,38);"/>
    </g>
    <rect x="380.384" y="253.844" width="56.239" height="46.156" style="fill:rgb(38,38,38);"/>
    <g transform="matrix(1,0,0,1,-351.618,0)">
        <rect x="380.384" y="253.844" width="56.239" height="46.156" style="fill:rgb(38,38,38);"/>
    </g>
    <g transform="matrix(1,0,0,1,-1.49111,12.7507)">
        <path d="M85.006,142.008C84.451,141.453 80.288,93.417 132.993,93.417" style="fill:none;stroke-width:7.5px;stroke:black;"/>
    </g>
    <g transform="matrix(1.32831,0,0,1.32831,-48.6632,-33.8726)">
        <path d="M85.006,142.008C84.451,141.453 80.288,93.417 132.993,93.417" style="fill:none;stroke-width:5.65px;stroke:black;"/>
    </g>
    <g transform="matrix(2.83277e-16,1,-1,2.83277e-16,435.257,17.0069)">
        <path d="M85.006,142.008C84.451,141.453 80.288,93.417 132.993,93.417" style="fill:none;stroke-width:7.5px;stroke:black;"/>
    </g>
    <g transform="matrix(3.76281e-16,1.32831,-1.32831,3.76281e-16,481.88,-30.1652)">
        <path d="M85.006,142.008C84.451,141.453 80.288,93.417 132.993,93.417" style="fill:none;stroke-width:5.65px;stroke:black;"/>
    </g>
    <g transform="matrix(1.98649,0,0,1.77773,-788.333,-335.298)">
        <rect x="606.476" y="52.476" width="305.415" height="210.063" style="fill:rgb(6,0,77);"/>
    </g>
    <g transform="matrix(1.56856,0,0,1.65826,-502.041,-273.675)">
        <rect x="585.55" y="10.124" width="41.342" height="254.161" style="fill:rgb(38,38,38);"/>
    </g>
    <g transform="matrix(1.56856,0,0,1.65826,39.8158,-273.675)">
        <rect x="585.55" y="10.124" width="41.342" height="254.161" style="fill:rgb(38,38,38);"/>
    </g>
    <g transform="matrix(5.823e-16,2.05559,-0.785341,2.22469e-16,1287.95,-964.862)">
        <rect x="585.55" y="10.124" width="41.342" height="254.161" style="fill:rgb(38,38,38);"/>
    </g>
    <g transform="matrix(1.30747,0,0,1.65826,-72.8377,-273.675)">
        <rect x="585.55" y="10.124" width="41.342" height="254.161" style="fill:rgb(38,38,38);"/>
    </g>
    <g transform="matrix(4.81354e-16,1.4105,-2.14164,5.0359e-16,1013.62,-719.651)">
        <rect x="585.55" y="10.124" width="41.342" height="254.161" style="fill:rgb(38,38,38);"/>
    </g>
    <g transform="matrix(2.9338,0,0,1.54838,-2225.11,-130.946)">
        <path d="M1131.81,238.787L1173.11,238.787C1173.11,238.787 1171.11,224.728 1151.69,225.269C1132.27,225.809 1131.81,238.787 1131.81,238.787Z" style="fill:rgb(191,191,191);"/>
    </g>
    <g transform="matrix(1,0,0,1,-14.309,5.68434e-14)">
        <path d="M1166.94,228.309C1166.94,228.309 1163.89,118.467 1222.05,117.319" style="fill:none;stroke-width:20px;stroke:rgb(191,191,191);"/>
    </g>
    <path d="M1245.21,127.552C1245.21,129.053 1249.25,163.347 1214.14,156.224C1179.04,149.1 1245.21,126.051 1245.21,127.552Z" style="fill:rgb(128,128,128);"/>
    <g transform="matrix(1.02384,-0.957383,0.957383,1.02384,-220.768,1149.23)">
        <path d="M1244.66,117.319C1254.07,118.433 1267.62,155.906 1280,183.043L1209.33,183.043C1221.29,156.728 1233.77,117.928 1244.66,117.319Z" style="fill:rgb(191,191,191);"/>
    </g>
</svg>
