<?xml version="1.0" standalone="no"?>
<!DOCTYPE svg PUBLIC "-//W3C//DTD SVG 1.1//EN" "http://www.w3.org/Graphics/SVG/1.1/DTD/svg11.dtd">
<svg width="100%" height="100%" viewBox="0 0 1280 700" version="1.1" xmlns="http://www.w3.org/2000/svg" xmlns:xlink="http://www.w3.org/1999/xlink" xml:space="preserve" style="fill-rule:evenodd;clip-rule:evenodd;stroke-linejoin:round;stroke-miterlimit:1.41421;">
    <g transform="matrix(1,0,0,1,-10.229,-46.2359)">
        <rect x="-47.396" y="-35.571" width="1409.08" height="930.303" style="fill:white;"/>
    </g>
    <g transform="matrix(1,0,0,0.882219,-5.0654,23.4492)">
        <rect x="284.415" y="673.53" width="30.658" height="25.539" style="fill:rgb(177,177,177);"/>
    </g>
    <g transform="matrix(1,0,0,1,-20.1454,-103.988)">
        <path d="M321.113,691.839C321.113,687.848 317.873,684.609 313.883,684.609L215.538,684.609C211.547,684.609 208.308,687.848 208.308,691.839L208.308,706.299C208.308,710.29 211.547,713.529 215.538,713.529L313.883,713.529C317.873,713.529 321.113,710.29 321.113,706.299L321.113,691.839Z" style="fill:black;"/>
    </g>
    <g transform="matrix(0.869035,0.0722586,-0.0646196,0.777163,103.735,208.111)">
        <text x="233.479px" y="347.434px" style="font-family:Adobe Caslon Pro;font-size:282.424px;font-weight:700;font-style:italic;fill:black;">Z</text>
    </g>
    <g transform="matrix(0.565341,-0.195904,0.178975,0.516487,303.816,297.254)">
        <text x="233.479px" y="347.434px" style="font-family:Adobe Caslon Pro;font-size:282.424px;font-weight:700;font-style:italic;fill:black;">Z</text>
    </g>
    <g transform="matrix(0.383703,-0.134905,0.128673,0.365979,484.459,243.37)">
        <text x="233.479px" y="347.434px" style="font-family:Adobe Caslon Pro;font-size:282.424px;font-weight:700;font-style:italic;fill:black;">Z</text>
    </g>
    <g transform="matrix(1,0,0,1,-20.1454,-103.988)">
        <rect x="99.952" y="642.556" width="79.76" height="223.018" style="fill:black;"/>
    </g>
    <g transform="matrix(1,0,0,1,561.997,-103.988)">
        <rect x="99.952" y="642.556" width="79.76" height="223.018" style="fill:black;"/>
    </g>
    <g transform="matrix(0.63997,0,0,1,15.8402,-74.7804)">
        <rect x="99.952" y="670.746" width="1025.26" height="54.112" style="fill:black;"/>
    </g>
    <g transform="matrix(1,0,0,1,-48.023,-122.985)">
        <rect x="867.59" y="202.611" width="282.838" height="280.786" style="fill:rgb(0,31,72);"/>
    </g>
    <g transform="matrix(1.13916,0,0,1.13916,-58.5543,-195.126)">
        <circle cx="263.698" cy="671.254" r="28.699" style="fill:rgb(177,177,177);"/>
    </g>
    <g transform="matrix(1,0,0,1,819.829,-219.743)">
        <rect x="-15.089" y="286.175" width="312.492" height="29.655" style="fill:rgb(177,177,177);"/>
    </g>
    <g transform="matrix(1,0,0,1,819.829,-77.4402)">
        <rect x="-15.089" y="286.175" width="312.492" height="29.655" style="fill:rgb(177,177,177);"/>
    </g>
    <g transform="matrix(1,0,0,1,819.829,63.7508)">
        <rect x="-15.089" y="286.175" width="312.492" height="29.655" style="fill:rgb(177,177,177);"/>
    </g>
    <g transform="matrix(2.83277e-16,1,-1,2.83277e-16,1120.57,82.1775)">
        <rect x="-15.089" y="286.175" width="312.492" height="29.655" style="fill:rgb(177,177,177);"/>
    </g>
    <g transform="matrix(2.83277e-16,1,-1,2.83277e-16,1403.41,81.5209)">
        <rect x="-15.089" y="286.175" width="312.492" height="29.655" style="fill:rgb(177,177,177);"/>
    </g>
    <g transform="matrix(2.83277e-16,1,-1,2.83277e-16,1261.99,82.1775)">
        <rect x="-15.089" y="286.175" width="312.492" height="29.655" style="fill:rgb(177,177,177);"/>
    </g>
    <g transform="matrix(1,0,0,1,-8.56874,-66.7047)">
        <path d="M878.879,188.089L880.796,193.988L886.998,193.988L881.98,197.633L883.897,203.532L878.879,199.887L873.861,203.532L875.778,197.633L870.76,193.988L876.962,193.988L878.879,188.089Z" style="fill:rgb(255,225,0);"/>
    </g>
    <g transform="matrix(0.875716,0.482827,-0.482827,0.875716,245.031,-422.009)">
        <path d="M878.879,188.089L880.796,193.988L886.998,193.988L881.98,197.633L883.897,203.532L878.879,199.887L873.861,203.532L875.778,197.633L870.76,193.988L876.962,193.988L878.879,188.089Z" style="fill:rgb(255,225,0);"/>
    </g>
    <g transform="matrix(0.915825,0.401577,-0.401577,0.915825,135.876,-218.226)">
        <path d="M878.879,188.089L880.796,193.988L886.998,193.988L881.98,197.633L883.897,203.532L878.879,199.887L873.861,203.532L875.778,197.633L870.76,193.988L876.962,193.988L878.879,188.089Z" style="fill:rgb(255,225,0);"/>
    </g>
    <g transform="matrix(0.915825,0.401577,-0.401577,0.915825,312.381,-359.547)">
        <path d="M878.879,188.089L880.796,193.988L886.998,193.988L881.98,197.633L883.897,203.532L878.879,199.887L873.861,203.532L875.778,197.633L870.76,193.988L876.962,193.988L878.879,188.089Z" style="fill:rgb(255,225,0);"/>
    </g>
    <g transform="matrix(0.915825,0.401577,-0.401577,0.915825,279.02,-246.705)">
        <path d="M878.879,188.089L880.796,193.988L886.998,193.988L881.98,197.633L883.897,203.532L878.879,199.887L873.861,203.532L875.778,197.633L870.76,193.988L876.962,193.988L878.879,188.089Z" style="fill:rgb(255,225,0);"/>
    </g>
    <g transform="matrix(1.01637,0,0,1,-27.7376,-103.988)">
        <path d="M297.403,650.235C477.835,640.18 591.75,653.748 613.766,699.953L297.403,699.953L297.403,650.235Z" style="fill:rgb(91,113,142);"/>
    </g>
</svg>
