<?xml version="1.0" standalone="no"?>
<!DOCTYPE svg PUBLIC "-//W3C//DTD SVG 1.1//EN" "http://www.w3.org/Graphics/SVG/1.1/DTD/svg11.dtd">
<svg width="100%" height="100%" viewBox="0 0 960 200" version="1.1" xmlns="http://www.w3.org/2000/svg" xmlns:xlink="http://www.w3.org/1999/xlink" xml:space="preserve" style="fill-rule:evenodd;clip-rule:evenodd;stroke-linejoin:round;stroke-miterlimit:1.41421;">
    <g transform="matrix(0.075,0,0,-0.075,0,231.75)">
        <path d="M6145,3085C3714,3085 2721,3084 3938,3083C5156,3081 7145,3081 8358,3083C9572,3084 8576,3085 6145,3085Z" style="fill:rgb(175,195,205);fill-rule:nonzero;"/>
    </g>
    <g transform="matrix(0.075,0,0,-0.075,0,228.416)">
        <path d="M855,3090L0,3090L0,1545L0,0L12800,0L12800,3090L11696,3090L10593,3090L10598,3065C10602,3044 10589,3027 10524,2962C10480,2919 10398,2849 10340,2806C10282,2763 10201,2711 10160,2691C10119,2672 9984,2621 9860,2580L9635,2504L9473,2210C9383,2048 9309,1911 9307,1906C9305,1901 9113,1974 8879,2068L8455,2240L8370,2230C8323,2224 8169,2215 8028,2210L7770,2201L7581,2081C7476,2015 7382,1957 7372,1951C7356,1942 7325,1958 7186,2045L7020,2150L6992,2120C6977,2103 6830,1942 6665,1761C6500,1580 6361,1431 6355,1431C6350,1431 6190,1601 6001,1809L5657,2187L5548,2119C5488,2081 5437,2050 5435,2050C5433,2050 5363,2093 5280,2146C5140,2234 5127,2240 5107,2227C5095,2220 4958,2134 4804,2037C4649,1940 4519,1860 4515,1860C4511,1860 4432,1908 4339,1966L4170,2073L4092,2025C4050,1998 4001,1969 3984,1958L3954,1940L3651,2130L3348,2321L3151,2335C3043,2344 2892,2357 2815,2366C2738,2374 2644,2388 2607,2397C2550,2409 2522,2424 2426,2493C2363,2538 2245,2630 2163,2696C2082,2763 1946,2879 1862,2954L1710,3090L855,3090Z" style="fill:rgb(26,131,187);fill-rule:nonzero;"/>
    </g>
    <g transform="matrix(0.075,0,0,-0.075,1.73193,231)">
        <g>
            <path d="M6162,3078L1729,3080L1832,2988C1889,2937 1991,2847 2060,2789C2129,2731 2228,2650 2280,2609C2332,2567 2411,2508 2456,2477C2509,2440 2557,2415 2595,2405C2628,2397 2733,2381 2830,2370C2926,2360 3082,2346 3175,2339L3345,2328L3646,2139C3812,2035 3951,1950 3955,1950C3959,1950 4009,1979 4066,2015L4169,2080L4337,1973C4429,1915 4510,1867 4515,1867C4521,1867 4656,1949 4815,2050C4975,2151 5112,2235 5121,2237C5129,2240 5198,2203 5274,2155C5350,2108 5418,2066 5426,2063C5434,2060 5488,2088 5546,2124C5604,2160 5655,2190 5658,2189C5662,2189 5820,2018 6010,1809L6355,1430L6384,1462C6401,1480 6549,1642 6713,1823C6878,2003 7016,2150 7021,2150C7025,2150 7098,2107 7182,2054C7266,2001 7341,1955 7347,1953C7354,1950 7453,2007 7567,2078L7775,2208L7980,2213C8093,2216 8248,2224 8325,2230L8465,2242L8875,2076C9101,1985 9290,1910 9295,1910C9301,1911 9379,2046 9470,2211L9635,2512L9857,2585C9979,2626 10112,2674 10152,2693C10192,2711 10279,2767 10345,2817C10411,2867 10493,2937 10527,2972C10561,3006 10590,3044 10592,3055C10595,3075 10589,3075 6162,3078Z" style="fill:rgb(209,209,209);fill-rule:nonzero;"/>
        </g>
    </g>
</svg>
