<?xml version="1.0" standalone="no"?>
<!DOCTYPE svg PUBLIC "-//W3C//DTD SVG 20010904//EN"
 "http://www.w3.org/TR/2001/REC-SVG-20010904/DTD/svg10.dtd">
<svg version="1.0" xmlns="http://www.w3.org/2000/svg"
 width="479.999988pt" height="479.999988pt" viewBox="0 0 479.999988 479.999988"
 preserveAspectRatio="xMidYMid meet">

<g transform="translate(0.000000,479.999988) scale(0.075000,-0.075000)"
fill="#87b2c9" stroke="none">
<path d="M1670 1860 c-3 0 65 -70 150 -155 85 -85 157 -155 160 -155 3 0 -65
70 -150 155 -85 85 -157 155 -160 155z"/>
<path d="M2560 1790 c-3 0 -73 -67 -155 -150 -82 -82 -147 -150 -145 -150 3 0
73 68 155 150 82 83 147 150 145 150z"/>
<path d="M3950 1767 c-36 0 -50 -2 -32 -4 17 -2 47 -2 65 0 17 2 3 4 -33 4z"/>
<path d="M3506 1720 c-5 0 -7 -1 -5 -2 3 -2 45 -41 94 -88 l90 -85 -85 88
c-46 48 -89 87 -94 87z"/>
</g>
<g transform="translate(0.000000,479.999988) scale(0.075000,-0.075000)"
fill="#b7c6ce" stroke="none">
<path d="M3887 1770 c-1 0 -50 -48 -107 -107 l-105 -108 108 105 c59 57 107
106 107 107 0 2 -1 3 -3 3z"/>
</g>
<g transform="translate(0.000000,479.999988) scale(0.075000,-0.075000)"
fill="#fefefe" stroke="none">
<path d="M2980 4750 c-3 0 -79 -221 -169 -491 l-163 -490 -81 140 c-45 78 -84
141 -87 141 -3 0 -53 -81 -109 -180 l-104 -180 -80 0 c-46 0 -117 -9 -169 -21
-76 -18 -92 -19 -103 -8 -7 8 -99 111 -205 229 -106 118 -196 216 -199 218 -4
1 -43 -185 -88 -414 l-82 -415 -48 -41 c-26 -23 -90 -83 -141 -134 -89 -89
-95 -99 -167 -246 -40 -84 -85 -188 -99 -230 -14 -42 -26 -90 -26 -108 0 -17
6 -33 13 -35 6 -3 1005 -4 2219 -3 l2207 3 -78 190 c-43 105 -113 269 -156
365 -42 96 -100 219 -128 273 -35 67 -60 103 -81 116 -17 11 -67 30 -111 44
-44 13 -121 33 -171 42 l-90 19 -149 258 c-82 142 -152 258 -155 258 -3 0 -28
-38 -55 -86 -44 -76 -51 -83 -62 -67 -8 9 -46 75 -86 145 -39 70 -74 127 -77
127 -3 0 -72 -117 -154 -260 -131 -228 -151 -259 -163 -244 -7 10 -40 67 -75
126 -34 60 -65 109 -68 109 -3 0 -28 -38 -55 -85 -27 -47 -51 -85 -55 -85 -3
0 -82 230 -175 510 -93 281 -172 510 -175 510z"/>
</g>
<g transform="translate(0.000000,479.999988) scale(0.075000,-0.075000)"
fill="#1a83bb" stroke="none">
<path d="M428 2470 l-428 0 0 -1235 0 -1235 3200 0 3200 0 0 1235 0 1235 -550
0 -550 0 0 -24 c0 -13 -18 -50 -39 -82 -22 -33 -68 -93 -103 -134 -55 -63 -81
-85 -174 -137 -60 -34 -121 -67 -136 -74 -15 -6 -32 -25 -38 -43 -6 -17 -43
-123 -81 -236 -39 -113 -74 -208 -77 -212 -4 -4 -101 54 -215 128 l-208 134
-62 -9 c-34 -6 -112 -13 -174 -17 l-111 -7 -103 -103 -104 -104 -82 82 c-45
45 -84 80 -86 77 -3 -2 -75 -128 -161 -279 -87 -151 -160 -278 -164 -282 -4
-4 -86 131 -182 299 l-174 306 -53 -59 -53 -59 -77 77 -78 78 -152 -152 -153
-153 -88 88 -88 87 -54 -55 -55 -55 -155 154 -155 154 -134 17 c-73 9 -159 23
-190 31 -41 11 -67 26 -99 57 -24 23 -81 91 -128 151 -47 60 -124 164 -172
232 l-87 124 -427 0z"/>
</g>
<g transform="translate(0.000000,479.999988) scale(0.075000,-0.075000)"
fill="#d1d1d1" stroke="none">
<path d="M3200 6400 l-3200 0 0 -1965 0 -1965 433 0 432 -1 45 -67 c25 -36 91
-127 146 -202 56 -74 125 -162 154 -195 29 -33 62 -65 74 -72 12 -7 53 -19 91
-28 39 -8 121 -22 184 -30 l115 -14 151 -151 150 -150 50 50 c27 27 53 50 57
50 4 0 44 -38 90 -86 l82 -85 155 155 156 156 77 -77 78 -78 55 55 c30 29 56
52 59 49 2 -2 80 -138 174 -302 l170 -298 156 273 c86 150 161 280 166 288 8
12 25 -1 92 -67 l83 -83 104 104 103 103 131 7 c73 3 151 10 174 15 41 8 43 7
249 -126 152 -98 209 -130 215 -121 5 7 43 115 86 241 l77 228 118 61 c64 33
136 76 158 95 22 19 69 72 104 116 35 45 73 100 84 121 16 30 19 43 10 53 -9
11 87 13 551 13 l561 0 0 1965 0 1965 -3200 0z m-220 -1650 c3 0 82 -229 175
-510 93 -280 172 -510 175 -510 4 0 28 38 55 85 27 47 52 85 55 85 3 0 34 -49
68 -109 35 -59 68 -116 75 -126 12 -15 32 16 163 244 82 143 151 260 154 260
3 0 38 -57 77 -127 40 -70 78 -136 86 -145 11 -16 18 -9 62 67 27 48 52 86 55
86 3 0 73 -116 155 -258 l149 -258 90 -19 c50 -9 127 -29 171 -42 44 -14 94
-33 111 -44 21 -13 46 -49 81 -116 28 -54 86 -177 128 -273 43 -96 113 -260
156 -365 l78 -190 -2207 -3 c-1214 -1 -2213 0 -2219 3 -7 2 -13 18 -13 35 0
18 12 66 26 108 14 42 59 146 99 230 72 147 78 157 167 246 51 51 115 111 141
134 l48 41 82 415 c45 229 84 415 88 414 3 -2 93 -100 199 -218 106 -118 198
-221 205 -229 11 -11 27 -10 103 8 52 12 123 21 169 21 l80 0 104 180 c56 99
106 180 109 180 3 0 42 -63 87 -141 l81 -140 163 490 c90 270 166 491 169 491z"/>
</g>
</svg>