<?xml version="1.0" standalone="no"?>
<!DOCTYPE svg PUBLIC "-//W3C//DTD SVG 20010904//EN"
 "http://www.w3.org/TR/2001/REC-SVG-20010904/DTD/svg10.dtd">
<svg version="1.0" xmlns="http://www.w3.org/2000/svg"
 width="959.999976pt" height="599.999976pt" viewBox="0 0 959.999976 599.999976"
 preserveAspectRatio="xMidYMid meet">

<g transform="translate(0.000000,599.999976) scale(0.075000,-0.075000)"
fill="#a4becb" stroke="none">
</g>
<g transform="translate(0.000000,599.999976) scale(0.075000,-0.075000)"
fill="#a0bccb" stroke="none">
</g>
<g transform="translate(0.000000,599.999976) scale(0.075000,-0.075000)"
fill="#afc3cd" stroke="none">
<path d="M6145 3085 c-2431 0 -3424 -1 -2207 -2 1218 -2 3207 -2 4420 0 1214
1 218 2 -2213 2z"/>
</g>
<g transform="translate(0.000000,599.999976) scale(0.075000,-0.075000)"
fill="#fefefe" stroke="none">
<path d="M5960 5950 c-4 0 -142 -255 -308 -567 -165 -313 -314 -591 -329 -620
l-29 -51 -164 179 c-90 99 -168 178 -172 177 -4 -2 -99 -103 -212 -224 l-204
-222 -179 -7 c-98 -4 -252 -18 -343 -31 l-165 -24 -40 29 c-22 15 -210 146
-418 290 -208 145 -380 261 -383 259 -2 -3 -79 -239 -170 -524 -90 -286 -168
-520 -172 -522 -4 -1 -71 -38 -149 -81 -77 -44 -187 -108 -244 -143 -57 -34
-133 -92 -169 -128 -36 -36 -115 -131 -175 -212 -61 -81 -132 -186 -159 -233
-34 -61 -50 -101 -54 -135 -4 -45 -3 -49 19 -55 13 -3 2011 -4 4440 -3 l4416
3 -136 210 c-75 116 -190 287 -256 380 -65 94 -166 233 -224 310 -58 77 -135
170 -171 206 -57 59 -73 70 -135 89 -38 11 -129 32 -202 45 -73 14 -208 34
-300 45 -92 12 -177 23 -188 25 -11 2 -155 151 -320 330 -165 179 -302 325
-305 325 -4 0 -51 -49 -106 -110 -54 -60 -102 -110 -106 -110 -3 0 -82 81
-173 180 -92 99 -171 180 -175 180 -5 0 -142 -145 -306 -322 -164 -178 -301
-324 -304 -326 -4 -1 -74 69 -155 158 -81 88 -151 160 -155 160 -4 0 -54 -51
-111 -114 -57 -63 -106 -115 -109 -115 -3 0 -160 292 -349 649 -189 358 -347
650 -351 650z"/>
</g>
<g transform="translate(0.000000,599.999976) scale(0.075000,-0.075000)"
fill="#1a83bb" stroke="none">
<path d="M855 3090 l-855 0 0 -1545 0 -1545 6400 0 6400 0 0 1545 0 1545
-1104 0 -1103 0 5 -25 c4 -21 -9 -38 -74 -103 -44 -43 -126 -113 -184 -156
-58 -43 -139 -95 -180 -115 -41 -19 -176 -70 -300 -111 l-225 -76 -162 -294
c-90 -162 -164 -299 -166 -304 -2 -5 -194 68 -428 162 l-424 172 -85 -10 c-47
-6 -201 -15 -342 -20 l-258 -9 -189 -120 c-105 -66 -199 -124 -209 -130 -16
-9 -47 7 -186 94 l-166 105 -28 -30 c-15 -17 -162 -178 -327 -359 -165 -181
-304 -330 -310 -330 -5 0 -165 170 -354 378 l-344 378 -109 -68 c-60 -38 -111
-69 -113 -69 -2 0 -72 43 -155 96 -140 88 -153 94 -173 81 -12 -7 -149 -93
-303 -190 -155 -97 -285 -177 -289 -177 -4 0 -83 48 -176 106 l-169 107 -78
-48 c-42 -27 -91 -56 -108 -67 l-30 -18 -303 190 -303 191 -197 14 c-108 9
-259 22 -336 31 -77 8 -171 22 -208 31 -57 12 -85 27 -181 96 -63 45 -181 137
-263 203 -81 67 -217 183 -301 258 l-152 136 -855 0z"/>
</g>
<g transform="translate(0.000000,599.999976) scale(0.075000,-0.075000)"
fill="#d1d1d1" stroke="none">
<path d="M6400 8000 l-6400 0 0 -2455 0 -2455 6400 0 6400 0 0 2455 0 2455
-6400 0z m-440 -2050 c4 0 162 -292 351 -650 189 -357 346 -649 349 -649 3 0
52 52 109 115 57 63 107 114 111 114 4 0 74 -72 155 -160 81 -89 151 -159 155
-158 3 2 140 148 304 326 164 177 301 322 306 322 4 0 83 -81 175 -180 91 -99
170 -180 173 -180 4 0 52 50 106 110 55 61 102 110 106 110 3 0 140 -146 305
-325 165 -179 309 -328 320 -330 11 -2 96 -13 188 -25 92 -11 227 -31 300 -45
73 -13 164 -34 202 -45 62 -19 78 -30 135 -89 36 -36 113 -129 171 -206 58
-77 159 -216 224 -310 66 -93 181 -264 256 -380 l136 -210 -4416 -3 c-2429 -1
-4427 0 -4440 3 -22 6 -23 10 -19 55 4 34 20 74 54 135 27 47 98 152 159 233
60 81 139 176 175 212 36 36 112 94 169 128 57 35 167 99 244 143 78 43 145
80 149 81 4 2 82 236 172 522 91 285 168 521 170 524 3 2 175 -114 383 -259
208 -144 396 -275 418 -290 l40 -29 165 24 c91 13 245 27 343 31 l179 7 204
222 c113 121 208 222 212 224 4 1 82 -78 172 -177 l164 -179 29 51 c15 29 164
307 329 620 166 312 304 567 308 567z"/>
<path d="M6162 3078 l-4433 2 103 -92 c57 -51 159 -141 228 -199 69 -58 168
-139 220 -180 52 -42 131 -101 176 -132 53 -37 101 -62 139 -72 33 -8 138 -24
235 -35 96 -10 252 -24 345 -31 l170 -11 301 -189 c166 -104 305 -189 309
-189 4 0 54 29 111 65 l103 65 168 -107 c92 -58 173 -106 178 -106 6 0 141 82
300 183 160 101 297 185 306 187 8 3 77 -34 153 -82 76 -47 144 -89 152 -92 8
-3 62 25 120 61 58 36 109 66 112 65 4 0 162 -171 352 -380 l345 -379 29 32
c17 18 165 180 329 361 165 180 303 327 308 327 4 0 77 -43 161 -96 84 -53
159 -99 165 -101 7 -3 106 54 220 125 l208 130 205 5 c113 3 268 11 345 17
l140 12 410 -166 c226 -91 415 -166 420 -166 6 1 84 136 175 301 l165 301 222
73 c122 41 255 89 295 108 40 18 127 74 193 124 66 50 148 120 182 155 34 34
63 72 65 83 3 20 -3 20 -4430 23z"/>
</g>
</svg>