<?xml version="1.0" encoding="UTF-8"?>
<!DOCTYPE svg PUBLIC "-//W3C//DTD SVG 1.1//EN" "http://www.w3.org/Graphics/SVG/1.1/DTD/svg11.dtd">
<svg version="1.1" xmlns="http://www.w3.org/2000/svg" xmlns:xlink="http://www.w3.org/1999/xlink" x="0" y="0" width="1270" height="720" viewBox="0, 0, 1270, 720">
  <g id="Background">
    <rect x="0" y="0" width="1270" height="720" fill="#FFFFFF"/>
  </g>
  <g id="Layer_1">
    <g id="gear">
      <g>
        <path d="M55.756,210.504 C-11.951,210.504 -66.838,155.617 -66.838,87.91 C-66.838,20.203 -11.951,-34.684 55.756,-34.684 C123.464,-34.684 178.351,20.203 178.351,87.91 C178.351,155.617 123.464,210.504 55.756,210.504 z" fill="#000000"/>
        <path d="M55.756,210.504 C-11.951,210.504 -66.838,155.617 -66.838,87.91 C-66.838,20.203 -11.951,-34.684 55.756,-34.684 C123.464,-34.684 178.351,20.203 178.351,87.91 C178.351,155.617 123.464,210.504 55.756,210.504 z" fill-opacity="0" stroke="#000000" stroke-width="1"/>
      </g>
      <g>
        <path d="M55.757,167.065 C12.04,167.065 -23.399,131.626 -23.399,87.91 C-23.399,44.194 12.04,8.754 55.757,8.754 C99.473,8.754 134.912,44.194 134.912,87.91 C134.912,131.626 99.473,167.065 55.757,167.065 z" fill="#FFFFFF"/>
        <path d="M55.757,167.065 C12.04,167.065 -23.399,131.626 -23.399,87.91 C-23.399,44.194 12.04,8.754 55.757,8.754 C99.473,8.754 134.912,44.194 134.912,87.91 C134.912,131.626 99.473,167.065 55.757,167.065 z" fill-opacity="0" stroke="#FFFFFF" stroke-width="1"/>
      </g>
      <g>
        <path d="M36.286,-89.771 L83.714,-89.771 L83.714,-13.665 L36.286,-13.665 L36.286,-89.771 z" fill="#000000"/>
        <path d="M36.286,186.139 L83.714,186.139 L83.714,262.244 L36.286,262.244 L36.286,186.139 z" fill="#000000"/>
      </g>
      <g>
        <path d="M236.008,62.523 L236.008,109.951 L159.903,109.951 L159.903,62.523 L236.008,62.523 z" fill="#000000"/>
        <path d="M-39.902,62.523 L-39.902,109.951 L-116.007,109.951 L-116.007,62.523 L-39.902,62.523 z" fill="#000000"/>
      </g>
      <g>
        <path d="M201.225,193.925 L167.688,227.461 L113.874,173.647 L147.41,140.11 L201.225,193.925 z" fill="#000000"/>
        <path d="M6.127,-1.173 L-27.41,32.364 L-81.224,-21.451 L-47.687,-54.988 L6.127,-1.173 z" fill="#000000"/>
      </g>
      <g>
        <path d="M-47.687,228.634 L-81.224,195.098 L-27.409,141.283 L6.127,174.82 L-47.687,228.634 z" fill="#000000"/>
        <path d="M147.41,33.537 L113.874,0 L167.688,-53.814 L201.225,-20.278 L147.41,33.537 z" fill="#000000"/>
      </g>
    </g>
    <g id="gear">
      <g>
        <path d="M332.078,410.5 C256.708,410.5 195.61,349.402 195.61,274.033 C195.61,198.663 256.708,137.565 332.078,137.565 C407.447,137.565 468.546,198.663 468.546,274.033 C468.546,349.402 407.447,410.5 332.078,410.5 z" fill="#000000"/>
        <path d="M332.078,410.5 C256.708,410.5 195.61,349.402 195.61,274.033 C195.61,198.663 256.708,137.565 332.078,137.565 C407.447,137.565 468.546,198.663 468.546,274.033 C468.546,349.402 407.447,410.5 332.078,410.5 z" fill-opacity="0" stroke="#000000" stroke-width="1"/>
      </g>
      <g>
        <path d="M332.078,362.146 C283.414,362.146 243.964,322.696 243.964,274.033 C243.964,225.369 283.414,185.919 332.078,185.919 C380.741,185.919 420.191,225.369 420.191,274.033 C420.191,322.696 380.741,362.146 332.078,362.146 z" fill="#FFFFFF"/>
        <path d="M332.078,362.146 C283.414,362.146 243.964,322.696 243.964,274.033 C243.964,225.369 283.414,185.919 332.078,185.919 C380.741,185.919 420.191,225.369 420.191,274.033 C420.191,322.696 380.741,362.146 332.078,362.146 z" fill-opacity="0" stroke="#FFFFFF" stroke-width="1"/>
      </g>
      <g>
        <path d="M310.461,76.301 L363.256,76.301 L363.256,161.019 L310.461,161.019 L310.461,76.301 z" fill="#000000"/>
        <path d="M310.461,383.435 L363.256,383.435 L363.256,468.152 L310.461,468.152 L310.461,383.435 z" fill="#000000"/>
      </g>
      <g>
        <path d="M532.784,245.829 L532.784,298.624 L448.066,298.624 L448.066,245.829 L532.784,245.829 z" fill="#000000"/>
        <path d="M225.651,245.829 L225.651,298.624 L140.933,298.624 L140.933,245.829 L225.651,245.829 z" fill="#000000"/>
      </g>
      <g>
        <path d="M494.065,392.101 L456.733,429.433 L396.828,369.528 L434.16,332.197 L494.065,392.101 z" fill="#000000"/>
        <path d="M276.888,174.925 L239.557,212.257 L179.652,152.352 L216.984,115.021 L276.888,174.925 z" fill="#000000"/>
      </g>
      <g>
        <path d="M216.984,430.739 L179.652,393.407 L239.557,333.502 L276.888,370.834 L216.984,430.739 z" fill="#000000"/>
        <path d="M434.16,213.563 L396.828,176.231 L456.733,116.326 L494.065,153.658 L434.16,213.563 z" fill="#000000"/>
      </g>
    </g>
    <g id="gear">
      <g>
        <path d="M696.796,354.845 C613.765,354.845 546.455,287.535 546.455,204.503 C546.455,121.472 613.765,54.162 696.796,54.162 C779.828,54.162 847.138,121.472 847.138,204.503 C847.138,287.535 779.828,354.845 696.796,354.845 z" fill="#000000"/>
        <path d="M696.796,354.845 C613.765,354.845 546.455,287.535 546.455,204.503 C546.455,121.472 613.765,54.162 696.796,54.162 C779.828,54.162 847.138,121.472 847.138,204.503 C847.138,287.535 779.828,354.845 696.796,354.845 z" fill-opacity="0" stroke="#000000" stroke-width="1"/>
      </g>
      <g>
        <path d="M696.796,301.574 C643.186,301.574 599.725,258.114 599.725,204.503 C599.725,150.893 643.186,107.433 696.796,107.433 C750.407,107.433 793.867,150.893 793.867,204.503 C793.867,258.114 750.407,301.574 696.796,301.574 z" fill="#FFFFFF"/>
        <path d="M696.796,301.574 C643.186,301.574 599.725,258.114 599.725,204.503 C599.725,150.893 643.186,107.433 696.796,107.433 C750.407,107.433 793.867,150.893 793.867,204.503 C793.867,258.114 750.407,301.574 696.796,301.574 z" fill-opacity="0" stroke="#FFFFFF" stroke-width="1"/>
      </g>
      <g>
        <path d="M673.033,-13.279 L731.195,-13.279 L731.195,80.052 L673.033,80.052 L673.033,-13.279 z" fill="#000000"/>
        <path d="M673.033,325.078 L731.195,325.078 L731.195,418.408 L673.033,418.408 L673.033,325.078 z" fill="#000000"/>
      </g>
      <g>
        <path d="M917.957,173.484 L917.957,231.646 L824.627,231.646 L824.627,173.484 L917.957,173.484 z" fill="#000000"/>
        <path d="M579.601,173.484 L579.601,231.646 L486.27,231.646 L486.27,173.484 L579.601,173.484 z" fill="#000000"/>
      </g>
      <g>
        <path d="M875.302,334.626 L834.175,375.753 L768.18,309.758 L809.307,268.631 L875.302,334.626 z" fill="#000000"/>
        <path d="M636.047,95.371 L594.92,136.498 L528.926,70.504 L570.053,29.377 L636.047,95.371 z" fill="#000000"/>
      </g>
      <g>
        <path d="M570.053,377.191 L528.926,336.064 L594.92,270.07 L636.047,311.197 L570.053,377.191 z" fill="#000000"/>
        <path d="M809.307,137.937 L768.18,96.81 L834.175,30.815 L875.302,71.942 L809.307,137.937 z" fill="#000000"/>
      </g>
    </g>
    <g id="gear">
      <g>
        <path d="M1154.876,804.012 C1013.511,804.012 898.911,689.412 898.911,548.047 C898.911,406.681 1013.511,292.081 1154.876,292.081 C1296.242,292.081 1410.841,406.681 1410.841,548.047 C1410.841,689.412 1296.242,804.012 1154.876,804.012 z" fill="#000000"/>
        <path d="M1154.876,804.012 C1013.511,804.012 898.911,689.412 898.911,548.047 C898.911,406.681 1013.511,292.081 1154.876,292.081 C1296.242,292.081 1410.841,406.681 1410.841,548.047 C1410.841,689.412 1296.242,804.012 1154.876,804.012 z" fill-opacity="0" stroke="#000000" stroke-width="1"/>
      </g>
      <g>
        <path d="M1154.876,713.315 C1063.601,713.315 989.608,639.322 989.608,548.047 C989.608,456.771 1063.601,382.778 1154.876,382.778 C1246.152,382.778 1320.145,456.771 1320.145,548.047 C1320.145,639.322 1246.152,713.315 1154.876,713.315 z" fill="#FFFFFF"/>
        <path d="M1154.876,713.315 C1063.601,713.315 989.608,639.322 989.608,548.047 C989.608,456.771 1063.601,382.778 1154.876,382.778 C1246.152,382.778 1320.145,456.771 1320.145,548.047 C1320.145,639.322 1246.152,713.315 1154.876,713.315 z" fill-opacity="0" stroke="#FFFFFF" stroke-width="1"/>
      </g>
      <g>
        <path d="M1114.769,177.611 L1213.793,177.611 L1213.793,336.511 L1114.769,336.511 L1114.769,177.611 z" fill="#000000"/>
        <path d="M1114.769,753.683 L1213.793,753.683 L1213.793,912.584 L1114.769,912.584 L1114.769,753.683 z" fill="#000000"/>
      </g>
      <g>
        <path d="M1531.767,495.585 L1531.767,594.61 L1372.867,594.61 L1372.867,495.585 L1531.767,495.585 z" fill="#000000"/>
        <path d="M955.695,495.585 L955.695,594.61 L796.795,594.61 L796.795,495.585 L955.695,495.585 z" fill="#000000"/>
      </g>
      <g>
        <path d="M1459.144,769.939 L1389.123,839.96 L1276.763,727.601 L1346.784,657.579 L1459.144,769.939 z" fill="#000000"/>
        <path d="M1051.799,362.594 L981.778,432.615 L869.418,320.256 L939.44,250.235 L1051.799,362.594 z" fill="#000000"/>
      </g>
      <g>
        <path d="M939.44,842.409 L869.418,772.388 L981.778,660.028 L1051.799,730.05 L939.44,842.409 z" fill="#000000"/>
        <path d="M1346.784,435.064 L1276.763,365.043 L1389.123,252.684 L1459.144,322.705 L1346.784,435.064 z" fill="#000000"/>
      </g>
    </g>
  </g>
</svg>
