<?xml version="1.0" encoding="UTF-8"?>
<!DOCTYPE svg PUBLIC "-//W3C//DTD SVG 1.1//EN" "http://www.w3.org/Graphics/SVG/1.1/DTD/svg11.dtd">
<svg version="1.1" xmlns="http://www.w3.org/2000/svg" xmlns:xlink="http://www.w3.org/1999/xlink" x="0" y="0" width="2000" height="1300" viewBox="0, 0, 2000, 1300">
  <g id="Background">
    <rect x="0" y="0" width="2000" height="1300" fill="#FFFFFF"/>
  </g>
  <g id="Layer_1">
    <path d="M0,0 L2000,0 L2000,1300 L0,1300 L0,0 z" fill="#FFFFFF"/>
    <path d="M1161,334.571 L1161,868 L987.352,868 L987.352,334.571 L1161,334.571 z" fill="#707070"/>
    <path d="M1447.588,568.647 L1447.588,1097.11 L1273.94,1097.11 L1273.94,568.647 L1447.588,568.647 z" fill="#FA6501"/>
    <path d="M1447.588,851.159 L1447.588,1342.274 L1273.94,1342.274 L1273.94,851.159 L1447.588,851.159 z" fill="#FA6501"/>
    <path d="M-21.157,-4.633 L474.048,-4.633 L474.048,173.648 L-21.157,173.648 L-21.157,-4.633 z" fill="#FA6501"/>
    <path d="M432.347,-4.633 L864.694,-4.633 L864.694,173.648 L432.347,173.648 L432.347,-4.633 z" fill="#FA6501"/>
    <path d="M864.694,0 L864.694,504.165 L691.046,504.165 L691.046,0 L864.694,0 z" fill="#FA6501"/>
    <path d="M824.808,432.347 L1297.041,432.347 L1297.041,605.995 L824.808,605.995 L824.808,432.347 z" fill="#FA6501"/>
    <path d="M1123.393,432.347 L1555.74,432.347 L1555.74,605.995 L1123.393,605.995 L1123.393,432.347 z" fill="#FA6501"/>
    <path d="M1555.74,432.347 L2000,432.347 L2000,605.995 L1555.74,605.995 L1555.74,432.347 z" fill="#FA6501"/>
    <path d="M1689.502,-4.633 L1689.502,480.998 L1515.854,480.998 L1515.854,-4.633 L1689.502,-4.633 z" fill="#707070"/>
    <path d="M824.808,865.173 L1257.155,865.173 L1257.155,1038.821 L824.808,1038.821 L824.808,865.173 z" fill="#707070"/>
    <path d="M1689.502,432.347 L1689.502,905.83 L1515.854,905.83 L1515.854,432.347 L1689.502,432.347 z" fill="#707070"/>
    <path d="M1213.132,864.694 L1689.501,864.694 L1689.501,1038.341 L1213.132,1038.341 L1213.132,864.694 z" fill="#707070"/>
    <path d="M392.461,866.173 L824.808,866.173 L824.808,1039.821 L392.461,1039.821 L392.461,866.173 z" fill="#707070"/>
    <path d="M-21.157,607.474 L400.569,607.474 L400.569,781.122 L-21.157,781.122 L-21.157,607.474 z" fill="#707070"/>
    <path d="M566.108,607.474 L566.108,1039.821 L392.461,1039.821 L392.461,607.474 L566.108,607.474 z" fill="#707070"/>
    <path d="M864.694,433.827 L864.694,866.173 L691.046,866.173 L691.046,433.827 L864.694,433.827 z" fill="#FA6501"/>
    <path d="M864.694,865.173 L864.694,1356.289 L691.046,1356.289 L691.046,865.173 L864.694,865.173 z" fill="#FA6501"/>
    <path d="M566.108,302.997 L566.108,735.344 L392.461,735.344 L392.461,302.997 L566.108,302.997 z" fill="#707070"/>
    <path d="M566.108,209.173 L566.108,568.647 L392.461,568.647 L392.461,209.173 L566.108,209.173 z" fill="#707070"/>
    <path d="M400.569,209.173 L822.295,209.173 L822.295,382.82 L400.569,382.82 L400.569,209.173 z" fill="#707070"/>
    <path d="M734.087,209.173 L1155.812,209.173 L1155.812,382.82 L734.087,382.82 L734.087,209.173 z" fill="#707070"/>
    <path d="M1002.07,209.173 L1423.796,209.173 L1423.796,382.82 L1002.07,382.82 L1002.07,209.173 z" fill="#707070"/>
    <path d="M1213.132,209.173 L1634.858,209.173 L1634.858,382.82 L1213.132,382.82 L1213.132,209.173 z" fill="#707070"/>
  </g>
</svg>
