<?xml version="1.0" standalone="no"?>
<!DOCTYPE svg PUBLIC "-//W3C//DTD SVG 20010904//EN"
 "http://www.w3.org/TR/2001/REC-SVG-20010904/DTD/svg10.dtd">
<svg version="1.0" xmlns="http://www.w3.org/2000/svg"
 width="149.999998pt" height="149.999998pt" viewBox="0 0 149.999998 149.999998"
 preserveAspectRatio="xMidYMid meet">

<g transform="translate(0.000000,149.999998) scale(0.075000,-0.075000)"
fill="#000000" stroke="none">
<path d="M1035 1992 c-27 3 -79 1 -115 -2 -36 -4 -92 -15 -125 -24 -33 -10
-91 -34 -130 -54 -48 -25 -96 -63 -155 -122 -59 -59 -97 -107 -122 -155 -20
-38 -44 -95 -53 -125 -9 -30 -20 -89 -24 -132 -5 -42 -4 -102 1 -135 5 -32 20
-93 34 -136 14 -42 61 -148 104 -235 43 -86 114 -215 157 -287 44 -71 108
-173 142 -225 35 -52 102 -150 149 -217 47 -68 89 -123 93 -123 4 0 38 44 76
98 39 53 106 151 150 217 44 66 120 185 168 265 48 80 118 208 156 285 37 77
83 183 100 235 29 83 33 108 33 200 0 82 -5 122 -23 180 -12 41 -36 100 -53
130 -17 30 -51 81 -75 112 -25 31 -71 77 -104 103 -32 25 -96 64 -141 85 -46
21 -108 43 -138 48 -30 6 -77 12 -105 14z m-23 -417 c27 -2 67 -13 91 -23 23
-10 57 -34 76 -53 19 -18 45 -56 57 -84 15 -31 24 -69 24 -101 0 -28 -8 -72
-17 -99 -10 -31 -34 -67 -63 -95 -28 -29 -64 -53 -95 -63 -27 -9 -71 -17 -99
-17 -32 0 -70 9 -101 24 -28 12 -66 38 -84 57 -19 19 -42 52 -52 74 -10 22
-20 56 -24 76 -4 21 -2 62 5 92 6 31 24 73 40 95 16 22 45 52 65 68 20 15 57
33 83 41 26 7 68 11 94 8z"/>
</g>
</svg>