<?xml version="1.0" standalone="no"?>
<!DOCTYPE svg PUBLIC "-//W3C//DTD SVG 20010904//EN"
 "http://www.w3.org/TR/2001/REC-SVG-20010904/DTD/svg10.dtd">
<svg version="1.0" xmlns="http://www.w3.org/2000/svg"
 width="149.999998pt" height="149.999998pt" viewBox="0 0 149.999998 149.999998"
 preserveAspectRatio="xMidYMid meet">

<g transform="translate(0.000000,149.999998) scale(0.075000,-0.075000)"
fill="#6f6f6f" stroke="none">
<path d="M1956 2000 l-44 0 -583 -530 -584 -530 -22 26 -21 27 -134 -100 c-73
-56 -169 -131 -213 -168 -44 -37 -81 -70 -82 -73 -2 -4 59 -25 135 -46 75 -21
142 -42 147 -47 6 -4 28 -73 50 -153 22 -80 43 -146 46 -146 3 0 35 28 70 63
48 46 75 84 106 147 23 47 51 117 62 156 l19 72 -42 63 -43 64 589 534 588
534 0 54 0 53 -44 0z"/>
<path d="M377 518 l-124 123 -86 -92 c-66 -69 -87 -98 -87 -119 0 -16 17 -54
39 -87 22 -32 90 -114 151 -181 61 -67 115 -122 119 -122 4 0 63 46 129 101
l122 101 -69 77 c-38 42 -125 131 -194 199z"/>
</g>
</svg>