<?xml version="1.0" standalone="no"?>
<!DOCTYPE svg PUBLIC "-//W3C//DTD SVG 20010904//EN"
 "http://www.w3.org/TR/2001/REC-SVG-20010904/DTD/svg10.dtd">
<svg version="1.0" xmlns="http://www.w3.org/2000/svg"
 width="149.999998pt" height="149.999998pt" viewBox="0 0 149.999998 149.999998"
 preserveAspectRatio="xMidYMid meet">

<g transform="translate(0.000000,149.999998) scale(0.075000,-0.075000)"
fill="#cbcbcb" stroke="none">
<path d="M211 590 c-3 0 24 -29 59 -65 35 -36 67 -65 69 -65 3 0 -24 29 -59
65 -35 36 -67 65 -69 65z"/>
<path d="M1787 590 c-1 0 -32 -30 -67 -67 l-65 -68 68 65 c37 35 67 66 67 67
0 2 -1 3 -3 3z"/>
</g>
<g transform="translate(0.000000,149.999998) scale(0.075000,-0.075000)"
fill="#6f6f6f" stroke="none">
<path d="M74 2000 c-33 0 -56 -5 -63 -14 -7 -8 -11 -26 -9 -39 2 -17 133 -141
446 -426 244 -221 442 -407 440 -412 -2 -6 -51 -53 -108 -105 l-105 -94 -22
26 -21 27 -134 -100 c-73 -56 -171 -133 -216 -172 -79 -67 -83 -71 -60 -80 12
-5 75 -23 138 -41 63 -17 120 -37 126 -43 7 -7 29 -73 49 -147 20 -74 39 -138
42 -143 2 -4 24 10 49 30 25 21 65 67 89 103 23 36 54 92 68 125 14 33 32 86
40 117 l15 58 -39 56 c-22 30 -41 59 -42 63 -1 4 53 58 121 120 l122 112 123
-112 c67 -62 121 -116 120 -120 -1 -4 -20 -33 -42 -63 l-39 -56 15 -58 c8 -31
26 -84 40 -117 14 -33 45 -89 68 -125 24 -36 64 -82 89 -103 25 -20 47 -34 49
-30 3 5 22 69 42 143 20 74 42 140 49 147 6 6 63 26 126 43 63 18 126 36 138
41 23 9 19 13 -60 80 -45 39 -143 116 -216 172 l-134 100 -21 -27 -22 -26
-105 94 c-57 52 -106 99 -108 105 -2 5 196 191 440 412 313 285 444 409 446
426 2 13 -2 31 -9 39 -7 9 -30 14 -63 14 l-51 0 -435 -395 c-239 -217 -437
-395 -440 -395 -3 0 -201 178 -440 395 l-435 395 -51 0z"/>
<path d="M268 528 l-83 82 -61 -62 c-33 -35 -73 -78 -87 -96 -15 -19 -27 -44
-27 -57 0 -13 17 -48 38 -79 20 -30 88 -112 151 -181 62 -69 116 -125 120
-125 4 0 62 46 129 102 l121 101 -109 116 c-60 64 -146 153 -192 199z"/>
<path d="M1853 572 l-39 38 -134 -138 c-75 -75 -161 -164 -193 -197 l-57 -61
122 -102 c67 -56 125 -102 129 -102 4 0 58 56 120 125 63 69 131 151 151 181
21 31 38 67 38 79 0 14 -21 49 -49 82 -27 32 -66 75 -88 95z"/>
</g>
</svg>