<?xml version="1.0" standalone="no"?>
<!DOCTYPE svg PUBLIC "-//W3C//DTD SVG 1.1//EN" "http://www.w3.org/Graphics/SVG/1.1/DTD/svg11.dtd">
<svg width="100%" height="100%" viewBox="0 0 1280 400" version="1.1" xmlns="http://www.w3.org/2000/svg" xmlns:xlink="http://www.w3.org/1999/xlink" xml:space="preserve" style="fill-rule:evenodd;clip-rule:evenodd;stroke-linejoin:round;stroke-miterlimit:1.41421;">
    <g transform="matrix(1.15056,0,0,1,-35.2847,-19.0328)">
        <rect x="0" y="0" width="1280" height="438.066" style="fill:rgb(21,21,21);"/>
    </g>
    <g id="planet" transform="matrix(1,0,0,1,-436.727,-53.1471)">
        <g transform="matrix(1,0,0,1,-76.9153,-119.094)">
            <circle cx="1173.74" cy="385.179" r="145.606" style="fill:rgb(0,3,255);"/>
        </g>
        <path d="M1004.47,153.33C1004.47,153.33 1045.98,146.858 1029.57,192.439C1013.15,238.021 986.765,248.62 978.795,235.087C970.826,221.554 963.913,242.596 977.276,271.778C990.639,300.96 1015.93,324.597 1015.93,324.597L1024.33,369.36L1018.35,388.438C1018.35,388.438 1002.7,379.655 986.736,361.339C974.323,347.092 961.825,326.859 955.684,301.918C949.41,276.439 947.9,242.698 963.02,209.133C968.124,197.802 974.94,183.103 984.259,172.126C990.298,165.013 997.083,160.331 1004.47,153.33Z" style="fill:rgb(0,119,25);"/>
        <path d="M1032.38,396.64L1053.08,377.405L1073.19,388.438L1087.22,377.759L1118.92,380.587L1128.22,388.438C1128.22,388.438 1128.01,393.564 1136.48,388.438C1144.95,383.312 1160.7,383.312 1160.7,383.312L1160.7,388.438C1160.7,388.438 1159.52,388.143 1166.21,388.438C1172.9,388.733 1171.16,392.101 1171.16,392.101C1171.16,392.101 1158.93,397.632 1156.36,400C1153.79,402.368 1120.83,400 1120.83,400L1038.34,400L1032.38,396.64Z" style="fill:white;"/>
        <path d="M1134.26,180.311L1124.24,188.313L1113.47,200L1121.68,216.797C1121.68,216.797 1138.36,201.61 1138.36,216.797C1138.36,231.983 1138.36,234.464 1138.36,234.464L1160.75,242.18L1155.01,251.529C1155.01,251.529 1134.82,251.976 1134.63,258.653C1134.44,265.33 1141.59,280.117 1141.59,280.117L1166.17,280.117L1184.19,281.643L1196.85,290.885L1206.52,277.778L1213.66,270.726L1215.28,258.901L1214.14,243.86L1219.92,243.574L1225.15,248.714L1230.21,259.112L1236.66,259.112L1240.09,257.109L1236.76,251.809L1231.73,247.187L1230.42,237.965L1233.14,233.194L1232.57,225.043L1232.57,219.626L1232.29,210.86L1220.71,188.626L1209.77,173.468L1198.66,161.849C1189.6,153.577 1180.5,146.664 1171.37,140.913L1144.18,138.061L1145.13,153.013L1148.65,158.074L1160.1,161.221L1167.83,165.895L1174.12,172.563L1174.12,177.407C1174.12,177.407 1178.39,186.81 1171.37,185.675C1164.34,184.541 1155.85,177.195 1155.85,177.195L1152.41,179.189L1149.97,184.891L1144.46,184.891L1140.04,183.778L1134.26,180.311Z" style="fill:rgb(0,119,25);"/>
        <g transform="matrix(0.228769,0.973481,-0.973481,0.228769,1113.4,-901.278)">
            <path d="M1134.26,180.311L1124.24,188.313L1113.47,200L1121.68,216.797C1121.68,216.797 1138.36,201.61 1138.36,216.797C1138.36,231.983 1138.36,234.464 1138.36,234.464L1160.75,242.18L1155.01,251.529C1155.01,251.529 1134.82,251.976 1134.63,258.653C1134.44,265.33 1141.59,280.117 1141.59,280.117L1166.17,280.117L1184.19,281.643L1196.85,290.885L1206.52,277.778L1213.66,270.726L1215.28,258.901L1214.14,243.86L1219.92,243.574L1225.15,248.714L1230.21,259.112L1236.66,259.112L1240.09,257.109L1236.76,251.809L1231.73,247.187L1230.42,237.965L1233.14,233.194L1232.57,225.043L1232.57,219.626L1232.29,210.86L1220.71,188.626L1209.77,173.468L1198.66,161.849C1189.6,153.577 1180.5,146.664 1171.37,140.913L1144.18,138.061L1145.13,153.013L1148.65,158.074L1160.1,161.221L1167.83,165.895L1174.12,172.563L1174.12,177.407C1174.12,177.407 1178.39,186.81 1171.37,185.675C1164.34,184.541 1155.85,177.195 1155.85,177.195L1152.41,179.189L1149.97,184.891L1144.46,184.891L1140.04,183.778L1134.26,180.311Z" style="fill:rgb(0,119,25);"/>
        </g>
        <g transform="matrix(0.228769,0.973481,-0.973481,0.228769,972.741,-915.224)">
            <path d="M1134.26,180.311L1124.24,188.313L1113.47,200L1121.68,216.797C1121.68,216.797 1138.36,201.61 1138.36,216.797C1138.36,231.983 1138.36,234.464 1138.36,234.464L1160.75,242.18L1155.01,251.529C1155.01,251.529 1134.82,251.976 1134.63,258.653C1134.44,265.33 1141.59,280.117 1141.59,280.117L1166.17,280.117L1184.19,281.643L1196.85,290.885L1206.52,277.778L1213.66,270.726L1215.28,258.901L1214.14,243.86L1219.92,243.574L1225.15,248.714L1230.21,259.112L1236.66,259.112L1240.09,257.109L1236.76,251.809L1231.73,247.187L1230.42,237.965L1233.14,233.194L1232.57,225.043L1232.57,219.626L1232.29,210.86L1220.71,188.626L1209.77,173.468L1198.66,161.849C1189.6,153.577 1180.5,146.664 1171.37,140.913L1144.18,138.061L1145.13,153.013L1148.65,158.074L1160.1,161.221L1167.83,165.895L1174.12,172.563L1174.12,177.407C1174.12,177.407 1178.39,186.81 1171.37,185.675C1164.34,184.541 1155.85,177.195 1155.85,177.195L1152.41,179.189L1149.97,184.891L1144.46,184.891L1140.04,183.778L1134.26,180.311Z" style="fill:rgb(0,119,25);"/>
        </g>
        <path d="M1052.09,127.079L1065.09,142.182L1075.88,138.061L1076.47,143.341L1090.75,143.341L1090.17,138.061L1084.83,133.915L1085.7,131.185L1090.67,130.893C1090.67,130.893 1092.98,122.042 1096.83,130.893C1100.67,139.744 1113.47,143.547 1113.47,143.547L1117.79,143.84L1117.79,141.228L1122.85,138.061L1117.13,134.717L1123.56,134.229L1130.16,130.047L1138.65,127.901L1140.87,127.122C1140.87,127.122 1120.53,119.154 1099.34,119.035C1073.35,118.888 1059.12,125.04 1052.09,127.079Z" style="fill:white;"/>
        <g transform="matrix(-1,5.66554e-16,-5.66554e-16,-1,2193.31,530.724)">
            <path d="M1038.73,129.671L1065.09,142.182L1075.88,138.061L1076.47,143.341L1090.75,143.341L1090.17,138.061L1084.83,133.915L1085.7,131.185L1093.12,141.495C1093.12,141.495 1092.98,125.93 1096.83,134.781C1100.67,143.632 1113.47,143.547 1113.47,143.547L1117.79,143.84L1117.79,141.228L1122.85,138.061L1117.13,134.717L1123.56,134.229L1131.1,133.351L1141.22,134.075L1154.97,130.724C1154.97,130.724 1120.25,115.014 1099.34,119.035C1073.35,118.888 1058.25,120.526 1038.73,129.671Z" style="fill:white;"/>
        </g>
    </g>
    <g id="rocket" transform="matrix(1.65849,1.85592,-1.85592,1.65849,554.849,-658.539)">
        <g transform="matrix(0.220457,0.0932332,-0.0410836,0.0971455,90.3802,308.802)">
            <path d="M344.182,121.33L385.33,243.55L303.034,243.55L344.182,121.33Z" style="fill:rgb(255,212,0);"/>
        </g>
        <g transform="matrix(0.220457,0.0932332,-0.0410836,0.0971455,107.832,316.146)">
            <path d="M344.182,121.33L385.33,243.55L303.034,243.55L344.182,121.33Z" style="fill:rgb(255,212,0);"/>
        </g>
        <g transform="matrix(-0.220622,-0.0928429,0.0409117,-0.0972181,222.225,420.204)">
            <path d="M344.182,121.33L385.33,243.55L303.034,243.55L344.182,121.33Z" style="fill:rgb(255,212,0);"/>
        </g>
        <g transform="matrix(-0.220622,-0.0928429,0.0409117,-0.0972181,239.667,427.543)">
            <path d="M344.182,121.33L385.33,243.55L303.034,243.55L344.182,121.33Z" style="fill:rgb(255,212,0);"/>
        </g>
        <g transform="matrix(0.152633,0.06455,-0.0410836,0.0971455,114.273,317.37)">
            <path d="M344.182,121.33L385.33,243.55L303.034,243.55L344.182,121.33Z" style="fill:rgb(255,169,0);"/>
        </g>
        <g transform="matrix(0.152633,0.06455,-0.0410836,0.0971455,131.735,324.718)">
            <path d="M344.182,121.33L385.33,243.55L303.034,243.55L344.182,121.33Z" style="fill:rgb(255,169,0);"/>
        </g>
        <g transform="matrix(-0.152747,-0.0642798,0.0204558,-0.048609,221.839,404.565)">
            <path d="M344.182,121.33L385.33,243.55L303.034,243.55L344.182,121.33Z" style="fill:rgb(255,169,0);"/>
        </g>
        <g transform="matrix(-0.152747,-0.0642798,0.0204558,-0.048609,204.387,397.22)">
            <path d="M344.182,121.33L385.33,243.55L303.034,243.55L344.182,121.33Z" style="fill:rgb(255,169,0);"/>
        </g>
        <g transform="matrix(1.26159,0.533538,-0.389508,0.921023,-104.379,-217.363)">
            <rect x="358.066" y="348.76" width="20.279" height="16.718" style="fill:rgb(100,100,100);"/>
        </g>
        <g transform="matrix(0.220457,0.0932332,-0.0410836,0.0971455,107.497,315.847)">
            <path d="M344.182,121.33L385.33,243.55L303.034,243.55L344.182,121.33Z" style="fill:rgb(255,212,0);"/>
        </g>
        <g transform="matrix(-0.220622,-0.0928429,0.0409117,-0.0972181,239.376,427.178)">
            <path d="M344.182,121.33L385.33,243.55L303.034,243.55L344.182,121.33Z" style="fill:rgb(255,212,0);"/>
        </g>
        <g transform="matrix(0.152633,0.06455,-0.0410836,0.0971455,131.401,324.419)">
            <path d="M344.182,121.33L385.33,243.55L303.034,243.55L344.182,121.33Z" style="fill:rgb(255,169,0);"/>
        </g>
        <g transform="matrix(-0.152747,-0.0642798,0.0204558,-0.048609,221.548,404.2)">
            <path d="M344.182,121.33L385.33,243.55L303.034,243.55L344.182,121.33Z" style="fill:rgb(255,169,0);"/>
        </g>
        <g transform="matrix(0.220457,0.0932332,-0.0410836,0.0971455,90.0378,308.501)">
            <path d="M344.182,121.33L385.33,243.55L303.034,243.55L344.182,121.33Z" style="fill:rgb(255,212,0);"/>
        </g>
        <g transform="matrix(-0.220622,-0.0928429,0.0409117,-0.0972181,221.916,419.832)">
            <path d="M344.182,121.33L385.33,243.55L303.034,243.55L344.182,121.33Z" style="fill:rgb(255,212,0);"/>
        </g>
        <g transform="matrix(0.152633,0.06455,-0.0410836,0.0971455,113.941,317.073)">
            <path d="M344.182,121.33L385.33,243.55L303.034,243.55L344.182,121.33Z" style="fill:rgb(255,169,0);"/>
        </g>
        <g transform="matrix(-0.152747,-0.0642798,0.0204558,-0.048609,204.088,396.853)">
            <path d="M344.182,121.33L385.33,243.55L303.034,243.55L344.182,121.33Z" style="fill:rgb(255,169,0);"/>
        </g>
        <g transform="matrix(0.41109,0.173853,-0.250717,0.592839,175.612,-51.8805)">
            <path d="M344.182,121.33L385.33,243.574L385.279,244.815L303.058,245.79L303.034,243.55L344.182,121.33Z" style="fill:rgb(100,100,100);"/>
        </g>
        <g transform="matrix(1.26159,0.533538,-0.389508,0.921023,-156.882,-239.442)">
            <rect x="358.066" y="348.76" width="20.279" height="16.718" style="fill:rgb(100,100,100);"/>
        </g>
        <g transform="matrix(0.219706,0.0929155,-0.103083,0.243748,194.903,169.497)">
            <path d="M344.182,121.33L385.33,243.55L385.169,246.552L303.049,244.935L303.034,243.55L344.182,121.33Z" style="fill:rgb(100,100,100);"/>
        </g>
        <g transform="matrix(0.203354,0.0860001,-0.0835804,0.197632,108.583,282.146)">
            <path d="M344.182,121.33L385.33,243.55L303.034,243.55L344.182,121.33Z" style="fill:rgb(100,100,100);"/>
        </g>
        <g transform="matrix(0.203354,0.0860001,-0.0835804,0.197632,126.045,289.495)">
            <path d="M344.182,121.33L385.33,243.55L303.034,243.55L344.182,121.33Z" style="fill:rgb(100,100,100);"/>
        </g>
        <g transform="matrix(0.220457,0.0932332,-0.0410836,0.0971455,134.748,311.945)">
            <path d="M344.182,121.33L385.33,243.55L303.034,243.55L344.182,121.33Z" style="fill:rgb(255,212,0);"/>
        </g>
        <g transform="matrix(-0.220622,-0.0928429,0.0409117,-0.0972181,266.626,423.277)">
            <path d="M344.182,121.33L385.33,243.55L303.034,243.55L344.182,121.33Z" style="fill:rgb(255,212,0);"/>
        </g>
        <g transform="matrix(0.152633,0.06455,-0.0410836,0.0971455,158.651,320.518)">
            <path d="M344.182,121.33L385.33,243.55L303.034,243.55L344.182,121.33Z" style="fill:rgb(255,169,0);"/>
        </g>
        <g transform="matrix(-0.152747,-0.0642798,0.0204558,-0.048609,248.798,400.298)">
            <path d="M344.182,121.33L385.33,243.55L303.034,243.55L344.182,121.33Z" style="fill:rgb(255,169,0);"/>
        </g>
        <g transform="matrix(0.203354,0.0860001,-0.0835804,0.197632,152.961,285.294)">
            <path d="M344.182,121.33L385.33,243.55L303.034,243.55L344.182,121.33Z" style="fill:rgb(100,100,100);"/>
        </g>
        <g transform="matrix(0.220457,0.0932332,-0.0410836,0.0971455,74.8474,286.738)">
            <path d="M344.182,121.33L385.33,243.55L303.034,243.55L344.182,121.33Z" style="fill:rgb(255,212,0);"/>
        </g>
        <g transform="matrix(-0.220622,-0.0928429,0.0409117,-0.0972181,206.682,398.135)">
            <path d="M344.182,121.33L385.33,243.55L303.034,243.55L344.182,121.33Z" style="fill:rgb(255,212,0);"/>
        </g>
        <g transform="matrix(0.152633,0.06455,-0.0410836,0.0971455,98.7504,295.31)">
            <path d="M344.182,121.33L385.33,243.55L303.034,243.55L344.182,121.33Z" style="fill:rgb(255,169,0);"/>
        </g>
        <g transform="matrix(-0.152747,-0.0642798,0.0204558,-0.048609,188.854,375.156)">
            <path d="M344.182,121.33L385.33,243.55L303.034,243.55L344.182,121.33Z" style="fill:rgb(255,169,0);"/>
        </g>
        <g transform="matrix(0.220457,0.0932332,-0.0410836,0.0971455,74.8195,286.713)">
            <path d="M344.182,121.33L385.33,243.55L303.034,243.55L344.182,121.33Z" style="fill:rgb(255,212,0);"/>
        </g>
        <g transform="matrix(-0.220622,-0.0928429,0.0409117,-0.0972181,206.698,398.045)">
            <path d="M344.182,121.33L385.33,243.55L303.034,243.55L344.182,121.33Z" style="fill:rgb(255,212,0);"/>
        </g>
        <g transform="matrix(0.152633,0.06455,-0.0410836,0.0971455,98.7225,295.285)">
            <path d="M344.182,121.33L385.33,243.55L303.034,243.55L344.182,121.33Z" style="fill:rgb(255,169,0);"/>
        </g>
        <g transform="matrix(-0.152747,-0.0642798,0.0204558,-0.048609,188.87,375.066)">
            <path d="M344.182,121.33L385.33,243.55L303.034,243.55L344.182,121.33Z" style="fill:rgb(255,169,0);"/>
        </g>
        <g transform="matrix(0.203354,0.0860001,-0.0835804,0.197632,93.0603,260.087)">
            <path d="M344.182,121.33L385.33,243.55L303.034,243.55L344.182,121.33Z" style="fill:rgb(100,100,100);"/>
        </g>
        <g transform="matrix(0.614755,0.259985,-0.389508,0.921023,130.734,-117.8)">
            <rect x="303.034" y="200" width="55.032" height="217.004" style="fill:rgb(255,126,0);"/>
        </g>
        <g transform="matrix(0.220186,0.0931186,-0.0899191,0.212621,131.509,151.744)">
            <path d="M344.182,121.33L385.386,243.743L303.224,243.896L303.213,243.55L344.182,121.33Z" style="fill:rgb(100,100,100);"/>
        </g>
        <g transform="matrix(0.921023,0.389508,-0.389508,0.921023,-54.8798,-192.763)">
            <rect x="378.345" y="300.923" width="19.631" height="105.867" style="fill:rgb(100,100,100);"/>
        </g>
        <g transform="matrix(0.921023,0.389508,-0.389508,0.921023,5.1219,-167.513)">
            <rect x="378.345" y="300.923" width="19.631" height="105.867" style="fill:rgb(100,100,100);"/>
        </g>
    </g>
</svg>
