<?xml version="1.0" standalone="no"?>
<!DOCTYPE svg PUBLIC "-//W3C//DTD SVG 20010904//EN"
 "http://www.w3.org/TR/2001/REC-SVG-20010904/DTD/svg10.dtd">
<svg version="1.0" xmlns="http://www.w3.org/2000/svg"
 width="149.999998pt" height="149.999998pt" viewBox="0 0 149.999998 149.999998"
 preserveAspectRatio="xMidYMid meet">

<g transform="translate(0.000000,149.999998) scale(0.075000,-0.075000)"
fill="#f9b685" stroke="none">
<path d="M700 1365 l-105 100 102 -105 c56 -57 104 -102 105 -100 2 3 -44 50
-102 105z"/>
<path d="M1357 1460 c-1 0 -45 -44 -97 -97 l-95 -98 98 95 c53 52 97 96 97 97
0 2 -1 3 -3 3z"/>
<path d="M1253 819 c-2 2 -3 0 -3 -5 0 -5 57 -65 128 -134 l127 -125 -125 130
c-69 71 -126 131 -127 134z"/>
<path d="M707 810 c-1 0 -50 -48 -107 -107 l-105 -108 108 105 c59 57 107 106
107 107 0 2 -1 3 -3 3z"/>
<path d="M321 680 c-3 0 19 -25 49 -55 30 -30 57 -55 59 -55 3 0 -19 25 -49
55 -30 30 -57 55 -59 55z"/>
<path d="M581 420 c-3 0 24 -29 59 -65 35 -36 67 -65 69 -65 3 0 -24 29 -59
65 -35 36 -67 65 -69 65z"/>
</g>
<g transform="translate(0.000000,149.999998) scale(0.075000,-0.075000)"
fill="#f69955" stroke="none">
</g>
<g transform="translate(0.000000,149.999998) scale(0.075000,-0.075000)"
fill="#fcdec7" stroke="none">
<path d="M500 1370 c-2 0 40 -45 95 -100 55 -55 102 -100 105 -100 2 0 -40 45
-95 100 -55 55 -102 100 -105 100z"/>
<path d="M1457 1370 c-1 0 -47 -46 -102 -102 l-100 -103 103 100 c56 55 102
101 102 102 0 2 -1 3 -3 3z"/>
<path d="M807 720 c-1 0 -50 -48 -107 -107 l-105 -108 108 105 c59 57 107 106
107 107 0 2 -1 3 -3 3z"/>
<path d="M1160 710 c-2 0 45 -49 105 -110 60 -60 112 -110 115 -110 2 0 -45
50 -105 110 -60 61 -112 110 -115 110z"/>
</g>
<g transform="translate(0.000000,149.999998) scale(0.075000,-0.075000)"
fill="#f7842f" stroke="none">
</g>
<g transform="translate(0.000000,149.999998) scale(0.075000,-0.075000)"
fill="#fbcdab" stroke="none">
<path d="M731 260 c-3 0 24 -29 59 -65 35 -36 67 -65 69 -65 3 0 -24 29 -59
65 -35 36 -67 65 -69 65z"/>
</g>
<g transform="translate(0.000000,149.999998) scale(0.075000,-0.075000)"
fill="#fde7d7" stroke="none">
</g>
<g transform="translate(0.000000,149.999998) scale(0.075000,-0.075000)"
fill="#f26700" stroke="none">
<path d="M1229 1701 c-113 117 -166 166 -162 149 4 -14 24 -60 46 -104 25 -49
61 -100 96 -135 31 -31 78 -71 104 -88 27 -18 54 -34 60 -36 7 -3 -37 -54 -97
-115 l-109 -111 -38 20 c-21 10 -62 23 -91 27 -29 4 -77 4 -106 0 -30 -5 -72
-18 -94 -29 l-41 -21 -102 102 c-69 69 -106 114 -114 138 -10 35 -9 39 17 62
15 14 52 45 82 70 30 25 72 61 95 80 22 19 64 57 92 84 29 27 51 51 50 53 -2
2 -24 -4 -48 -12 -24 -9 -73 -30 -108 -47 -37 -18 -86 -53 -117 -85 -30 -31
-68 -77 -86 -104 -25 -40 -37 -49 -60 -49 -15 0 -37 -9 -48 -20 -13 -13 -20
-33 -20 -58 0 -21 6 -44 13 -51 10 -10 3 -20 -33 -53 -25 -22 -94 -81 -155
-132 -60 -51 -121 -105 -134 -120 -14 -14 -23 -26 -20 -26 2 0 29 9 59 20 30
11 79 32 108 47 30 14 79 52 110 83 31 32 68 76 82 98 14 23 27 42 30 42 3 0
54 -49 114 -109 l108 -108 -16 -31 c-9 -17 -20 -55 -24 -84 -4 -29 -4 -77 0
-106 5 -30 17 -71 28 -92 l19 -37 -122 -120 c-67 -66 -132 -124 -145 -128 -20
-6 -44 15 -193 167 -93 95 -166 164 -163 153 3 -11 25 -58 47 -105 28 -55 61
-104 97 -141 30 -31 81 -70 112 -88 42 -24 58 -39 63 -60 3 -16 15 -38 26 -50
13 -14 32 -21 55 -21 19 0 43 6 55 13 18 11 33 -2 185 -158 110 -113 163 -162
158 -145 -3 14 -22 59 -42 100 -23 48 -56 95 -92 131 -30 30 -81 70 -112 88
-32 18 -60 36 -62 40 -3 4 46 58 109 121 l114 114 38 -18 c21 -9 61 -20 88
-24 28 -4 74 -4 104 0 29 5 67 16 83 24 l31 16 121 -121 c67 -67 122 -129 122
-139 1 -9 4 -24 8 -33 5 -12 -9 -26 -61 -56 -37 -22 -112 -66 -166 -97 -54
-31 -114 -69 -135 -83 l-37 -25 65 6 c36 4 91 16 122 26 32 10 82 35 110 54
29 19 75 58 103 85 39 40 56 51 81 51 24 0 39 8 54 28 17 20 21 36 17 64 l-5
37 82 47 c44 26 106 61 136 77 30 16 62 36 71 43 8 8 18 14 21 14 3 0 29 16
58 35 37 25 46 35 31 35 -11 0 -59 -9 -106 -20 -48 -11 -112 -32 -142 -47 -30
-15 -87 -56 -125 -92 l-70 -64 -130 130 -130 130 21 41 c11 22 24 64 29 94 4
29 4 75 0 103 -4 27 -15 67 -24 88 l-18 38 105 105 c57 58 119 112 138 121
l34 17 164 -170 c108 -111 162 -160 158 -144 -4 14 -25 62 -47 107 -29 61 -55
97 -98 136 -32 30 -82 68 -111 85 -39 22 -55 39 -63 63 -7 21 -22 39 -39 47
-22 11 -35 11 -64 1 l-37 -12 -167 174z"/>
</g>
</svg>